<svg width="35" height="35" viewBox="0 0 35 35" fill="none" xmlns="http://www.w3.org/2000/svg">
<g opacity="0.6">
<path d="M17.6751 18.6375C17.573 18.6229 17.4418 18.6229 17.3251 18.6375C14.7585 18.55 12.7168 16.45 12.7168 13.8688C12.7168 11.2292 14.846 9.08545 17.5001 9.08545C20.1397 9.08545 22.2835 11.2292 22.2835 13.8688C22.2689 16.45 20.2418 18.55 17.6751 18.6375Z" stroke="white" stroke-width="1.5" stroke-linecap="round" stroke-linejoin="round"/>
<path d="M27.3292 28.2624C24.7334 30.6395 21.2917 32.0832 17.5001 32.0832C13.7084 32.0832 10.2667 30.6395 7.6709 28.2624C7.81673 26.8916 8.69173 25.5499 10.2521 24.4999C14.248 21.8457 20.7813 21.8457 24.748 24.4999C26.3084 25.5499 27.1834 26.8916 27.3292 28.2624Z" stroke="white" stroke-width="1.5" stroke-linecap="round" stroke-linejoin="round"/>
<path d="M17.5003 32.0834C25.5545 32.0834 32.0837 25.5542 32.0837 17.5001C32.0837 9.44593 25.5545 2.91675 17.5003 2.91675C9.44617 2.91675 2.91699 9.44593 2.91699 17.5001C2.91699 25.5542 9.44617 32.0834 17.5003 32.0834Z" stroke="white" stroke-width="1.5" stroke-linecap="round" stroke-linejoin="round"/>
</g>
</svg>
